<?xml version="1.0" encoding="UTF-8" standalone="no"?>
<!DOCTYPE svg PUBLIC "-//W3C//DTD SVG 1.1//EN" "http://www.w3.org/Graphics/SVG/1.1/DTD/svg11.dtd">
<svg version="1.1" xmlns="http://www.w3.org/2000/svg" xmlns:xlink="http://www.w3.org/1999/xlink" preserveAspectRatio="xMidYMid meet" viewBox="0 0 24 24" width="24" height="24"><defs><path d="M12 17C10.89 17 10 16.1 10 15C10 13.89 10.89 13 12 13C13.1 13 14 13.9 14 15C14 16.1 13.1 17 12 17M18 20L18 10L6 10L6 20L18 20M18 8C19.1 8 20 8.9 20 10C20 11 20 19 20 20C20 21.1 19.1 22 18 22C16.8 22 7.2 22 6 22C4.89 22 4 21.1 4 20C4 19 4 11 4 10C4 8.89 4.89 8 6 8C6.07 8 6.4 8 7 8C7 6.8 7 6.13 7 6C7 3.24 9.24 1 12 1C14.76 1 17 3.24 17 6C17 6.13 17 6.8 17 8L18 8M9 6C9 6.13 9 6.8 9 8L15 8C15 6.8 15 6.13 15 6C15 4.34 13.66 3 12 3C10.34 3 9 4.34 9 6Z" id="coX3nxbVu"></path></defs><g><g><g><use xlink:href="#coX3nxbVu" opacity="1" fill="#ffffff" fill-opacity="1"></use><g><use xlink:href="#coX3nxbVu" opacity="1" fill-opacity="0" stroke="#000000" stroke-width="1" stroke-opacity="0"></use></g></g></g></g></svg>